<?xml version="1.0" encoding="iso-8859-1"?>
<!-- Generator: Adobe Illustrator 19.0.0, SVG Export Plug-In . SVG Version: 6.00 Build 0)  -->
<svg xmlns="http://www.w3.org/2000/svg" xmlns:xlink="http://www.w3.org/1999/xlink" version="1.1" id="Capa_1" x="0px" y="0px" viewBox="0 0 512 512" style="enable-background:new 0 0 512 512;" xml:space="preserve" width="512px" height="512px">
<g>
	<g>
		<path d="M471.101,89.1c-5.857-5.857-15.355-5.857-21.213,0l-58.007,58.006c-32.914-28.508-74.848-46.86-120.881-50.16V30h65.334    c8.284,0,15-6.716,15-15s-6.716-15-15-15H175.666c-8.284,0-15,6.716-15,15s6.716,15,15,15H241v66.946    c-46.033,3.3-87.967,21.651-120.881,50.16L62.112,89.1c-5.857-5.857-15.355-5.857-21.213,0c-5.858,5.857-5.858,15.355,0,21.213    l58.007,58.007c-31.577,36.457-50.705,83.977-50.705,135.88C48.201,418.781,141.419,512,256,512    c114.582,0,207.801-93.219,207.801-207.8c0-51.904-19.129-99.424-50.706-135.882l58.006-58.006    C476.959,104.455,476.959,94.957,471.101,89.1z M433.801,304.2C433.801,402.239,354.04,482,256,482    c-98.039,0-177.799-79.761-177.799-177.8S157.961,126.4,256,126.4C354.04,126.4,433.801,206.161,433.801,304.2z" fill="#ea2027"/>
	</g>
</g>
<g>
	<g>
		<path d="M352.4,289.2H271v-81.4c0-8.284-6.716-15-15-15c-8.284,0-15,6.716-15,15v96.4c0,8.284,6.716,15,15,15h96.4    c8.284,0,15-6.716,15-15S360.685,289.2,352.4,289.2z" fill="#ea2027"/>
	</g>
</g>
<g>
</g>
<g>
</g>
<g>
</g>
<g>
</g>
<g>
</g>
<g>
</g>
<g>
</g>
<g>
</g>
<g>
</g>
<g>
</g>
<g>
</g>
<g>
</g>
<g>
</g>
<g>
</g>
<g>
</g>
</svg>
